<svg xmlns="http://www.w3.org/2000/svg" viewBox="0 0 360 128" role="img" aria-label="Bırak, askıda, al"><title>Bırak, askıda, al</title><path fill="none" stroke="#2B2B2B" stroke-width="2" stroke-linecap="round" d="M8 10H352"/><path fill="none" stroke="#2B2B2B" stroke-width="2" stroke-linecap="round" d="M60 10V26"/><path fill="#E4DAC9" fill-rule="evenodd" d="M34 26H86A6 6 0 0 1 92 32V100A6 6 0 0 1 86 106H34A6 6 0 0 1 28 100V32A6 6 0 0 1 34 26ZM55 40A5 5 0 1 0 65 40A5 5 0 1 0 55 40Z"/><path fill="none" stroke="#2B2B2B" stroke-width="2" stroke-linecap="round" d="M60 65V83M51 74H69"/><path fill="none" stroke="#2B2B2B" stroke-width="2" stroke-linecap="round" d="M180 10V26"/><path fill="#C8763A" fill-rule="evenodd" d="M154 26H206A6 6 0 0 1 212 32V100A6 6 0 0 1 206 106H154A6 6 0 0 1 148 100V32A6 6 0 0 1 154 26ZM175 40A5 5 0 1 0 185 40A5 5 0 1 0 175 40Z"/><path fill="none" stroke="#2B2B2B" stroke-width="2" stroke-linecap="round" d="M300 10V18"/><path fill="#E4DAC9" fill-rule="evenodd" d="M274 38H326A6 6 0 0 1 332 44V112A6 6 0 0 1 326 118H274A6 6 0 0 1 268 112V44A6 6 0 0 1 274 38ZM295 52A5 5 0 1 0 305 52A5 5 0 1 0 295 52Z"/><path fill="none" stroke="#2B2B2B" stroke-width="2" stroke-linecap="round" stroke-linejoin="round" d="M300 76V96M293 89L300 96L307 89"/><path fill="none" stroke="#5F574E" stroke-width="2" stroke-linecap="round" stroke-linejoin="round" d="M117 60L123 66L117 72"/><path fill="none" stroke="#5F574E" stroke-width="2" stroke-linecap="round" stroke-linejoin="round" d="M237 60L243 66L237 72"/></svg>
