<svg xmlns="http://www.w3.org/2000/svg" viewBox="0 0 140 140" role="img" aria-label="Askıda"><title>Askıda</title><g transform="rotate(-8 70 70)"><circle cx="70" cy="70" r="66" fill="none" stroke="#D9C2A3" stroke-width="3" stroke-dasharray="58 3 21 2 84 4 33 2 47 3"/><circle cx="70" cy="70" r="40" fill="none" stroke="#D9C2A3" stroke-width="1.5"/><circle cx="17" cy="70" r="2" fill="#D9C2A3"/><circle cx="123" cy="70" r="2" fill="#D9C2A3"/><path fill="#D9C2A3" d="M22.3 75.5 14.2 76.3 14.1 75.1 22.2 74.3ZM13.1 76.4 12 76.6 11.9 75.4 13 75.2ZM22 69.3 17.8 69.2 18.6 68.9 13.8 72.2 13.9 70.8 17.4 68.4 17.4 68.7 14 66.1 14 64.8 18.6 68.3 17.8 68 22 68.1ZM22.5 63.1 14.5 61.8 14.7 60.6 22.7 61.9ZM13.4 61.7 12.3 61.5 12.4 60.3 13.6 60.5ZM23.3 58.9 15.5 56.6 15.8 55.5 22.6 57.5 23.7 53.6 24.7 53.9ZM25.6 51.7 18.2 48.5 18.6 47.4 26.1 50.6ZM17.1 48.1 16.1 47.7 16.5 46.6 17.6 47ZM27.3 47.8 20.4 43.7 21 42.6 24.1 44.5 24.1 44.5 22.9 39.4 23.7 38.1 25.1 44.1 24.6 43.7 30.8 42.1 30 43.4 24.7 44.8 24.7 44.8 28 46.8ZM34.1 37.9 31.2 29.5 31.9 28.8 40.1 32.2 39.2 33.1 36.9 32.1 37.5 31.9 33.9 35.3 34.1 34.7 35 37ZM32.4 30.1 34 34.3 33.6 34.3 36.5 31.5 36.5 31.9 32.4 30.1ZM44.3 29.6Q43.8 29.9 43.2 30.1Q42.7 30.4 42.2 30.4Q41.7 30.5 41.2 30.5L41 29.5Q41.5 29.5 41.9 29.4Q42.4 29.4 42.8 29.2Q43.3 29 43.8 28.7Q44.6 28.2 44.8 27.7Q45 27.1 44.7 26.6Q44.5 26.4 44.3 26.3Q44 26.2 43.7 26.2Q43.3 26.2 42.8 26.4L41.7 26.9Q40.6 27.3 39.9 27.1Q39.1 27 38.7 26.2Q38.3 25.6 38.3 24.9Q38.3 24.2 38.7 23.6Q39.2 23 39.9 22.5Q40.4 22.2 40.9 22Q41.3 21.9 41.8 21.8Q42.3 21.8 42.7 21.9L42.9 22.8Q42.3 22.7 41.7 22.9Q41.1 23 40.5 23.4Q40 23.7 39.7 24Q39.5 24.4 39.4 24.8Q39.4 25.2 39.6 25.5Q39.9 25.9 40.3 26Q40.7 26.1 41.4 25.8L42.6 25.4Q43.7 25 44.4 25.1Q45.2 25.2 45.6 25.9Q46 26.5 46 27.2Q45.9 27.8 45.5 28.5Q45.1 29.1 44.3 29.6ZM49.1 26.7 46.1 19.2 47.2 18.7 48.5 22.1 48.6 22.1 50.7 17.3 52 16.7 49.6 22.3 49.4 21.8 55.3 24.1 53.9 24.7 48.8 22.7 48.8 22.7 50.2 26.2ZM57.2 23.7 55.1 15.9 56.3 15.6 58.4 23.4ZM61.4 22.7 60.5 14.6 63.3 14.3Q64.6 14.1 65.6 14.5Q66.6 14.9 67.2 15.7Q67.8 16.6 67.9 17.9Q68 19.2 67.7 20.1Q67.3 21.1 66.4 21.6Q65.5 22.2 64.2 22.3ZM62.4 21.5 64 21.4Q65.5 21.2 66.2 20.4Q66.8 19.5 66.7 18Q66.5 16.5 65.7 15.8Q64.8 15.1 63.4 15.3L61.8 15.5ZM70.4 21.8 74.7 14.1 75.7 14.2 78.5 22.6 77.3 22.5 76.6 20.1 77.1 20.5 72.2 20 72.7 19.7 71.6 21.9ZM75.1 15.4 73 19.4 72.7 19.1 76.7 19.5 76.4 19.7 75.1 15.5ZM84.8 24.3 87.8 16.7 88.9 17.1 87.6 20.5 87.6 20.5 92.4 18.5 93.8 19 88.1 21.4 88.4 20.8 91.1 26.7 89.7 26.1 87.3 21.2 87.3 21.2 85.9 24.7ZM92.1 27.2 99.4 22.2 100.3 22.8 99 31.6 98 30.9 98.4 28.4 98.7 29 94.5 26.4 95.1 26.4 93.1 27.8ZM99.1 23.6 95.5 26.2 95.4 25.8 98.8 27.9 98.5 28 99.2 23.6ZM100.7 33.1 106.2 27.1 107.1 27.9 102.3 33.1 105.3 35.8 104.6 36.6ZM106.2 38.3 112.8 33.5 113.4 34.3 110.5 40.4 110.3 40.1 116.9 39.1 117.5 39.9 111 44.7 110.3 43.8 115.5 40 115.7 40.2 109.8 41 109.4 40.5 111.9 35.1 112.1 35.3 106.9 39.1ZM112.2 46.7 121 46.7 121.4 47.6 115.5 54.2 115 53.1 116.7 51.2 116.6 51.9 114.6 47.4 115.1 47.7 112.7 47.8ZM120 47.7 115.6 47.8 115.7 47.4 117.3 51.1 117 51 120 47.7ZM116.6 59Q116.5 58.4 116.5 57.9Q116.4 57.3 116.5 56.8Q116.6 56.2 116.8 55.8L117.8 56Q117.6 56.4 117.6 56.9Q117.5 57.3 117.5 57.8Q117.5 58.3 117.6 58.8Q117.8 59.8 118.3 60.1Q118.7 60.5 119.3 60.4Q119.6 60.3 119.8 60.1Q119.9 59.9 120 59.6Q120.1 59.2 120.1 58.7L120 57.4Q120 56.3 120.4 55.7Q120.8 55 121.7 54.8Q122.4 54.7 123 54.9Q123.6 55.2 124.1 55.8Q124.5 56.4 124.7 57.2Q124.9 57.8 124.9 58.3Q124.9 58.8 124.8 59.3Q124.7 59.7 124.4 60.1L123.5 60Q123.8 59.4 123.8 58.8Q123.9 58.2 123.8 57.5Q123.6 56.9 123.4 56.6Q123.1 56.2 122.7 56Q122.4 55.9 122 56Q121.5 56.1 121.3 56.5Q121.1 56.8 121.1 57.6L121.1 58.8Q121.2 60 120.8 60.7Q120.5 61.3 119.6 61.5Q119 61.7 118.3 61.4Q117.7 61.2 117.3 60.6Q116.8 60 116.6 59ZM117.7 64.6 125.8 63.8 125.9 65 117.8 65.8ZM118.1 68.9 126.2 69.2 126.2 70.1 119.4 74.8 119.4 74.5 125.9 74.8 125.9 75.9 117.8 75.5 117.8 74.6 124.6 70 124.6 70.2 118.1 70ZM31.9 112.6 39.7 108.4 40.5 109 38.4 117.6 37.4 116.9 38 114.4 38.3 115 34.4 112 35 112.1 32.8 113.3ZM39.3 109.7 35.4 111.9 35.3 111.5 38.5 114 38.1 114 39.3 109.7ZM43 120.3Q42.5 120 42 119.7Q41.6 119.3 41.2 118.9Q40.9 118.5 40.7 118L41.5 117.4Q41.7 117.8 42 118.2Q42.3 118.6 42.6 118.9Q43 119.2 43.5 119.4Q44.4 119.9 44.9 119.8Q45.5 119.7 45.8 119.2Q45.9 118.9 45.9 118.7Q45.9 118.4 45.7 118.1Q45.5 117.8 45 117.5L44.1 116.7Q43.2 116 43 115.3Q42.8 114.5 43.2 113.8Q43.6 113.1 44.2 112.8Q44.8 112.5 45.5 112.6Q46.3 112.6 47.1 113.1Q47.5 113.3 47.9 113.6Q48.3 114 48.6 114.4Q48.9 114.8 49 115.2L48.2 115.8Q48 115.2 47.6 114.7Q47.2 114.3 46.6 113.9Q46.1 113.7 45.6 113.6Q45.2 113.6 44.8 113.7Q44.5 113.9 44.3 114.3Q44 114.7 44.2 115.1Q44.3 115.5 44.9 116L45.8 116.8Q46.7 117.5 47 118.3Q47.2 119 46.9 119.7Q46.5 120.3 45.9 120.6Q45.3 120.9 44.6 120.8Q43.9 120.8 43 120.3ZM48.5 122.9 51.2 115.2 52.3 115.6 51.1 119.1 51.1 119.1 55.9 116.9 57.3 117.4 51.7 119.9 51.9 119.3 54.8 125.1 53.4 124.6 50.9 119.7 50.9 119.7 49.6 123.3ZM57.1 125.5 58.9 117.6 60 117.9 58.3 125.8ZM61.7 126.5 62.4 118.4 65.2 118.7Q66.6 118.8 67.4 119.3Q68.3 119.9 68.7 120.8Q69.2 121.8 69 123.1Q68.9 124.4 68.4 125.2Q67.8 126.1 66.8 126.5Q65.9 126.9 64.5 126.7ZM63 125.6 64.5 125.7Q66 125.9 66.9 125.2Q67.7 124.5 67.8 123Q67.9 121.4 67.3 120.6Q66.6 119.8 65.1 119.7L63.5 119.5ZM71.1 127.1 73.9 118.7 74.9 118.6 79.3 126.4 78.1 126.5 76.9 124.3 77.4 124.6 72.6 125 73.1 124.6 72.3 127ZM74.5 120 73.2 124.3 72.9 124 76.9 123.6 76.7 123.9 74.6 120ZM81.6 125.8 81.3 124.5 82.7 124.2 82.9 125.5ZM85.3 125.1 86 116.2 86.9 115.9 93.1 122.3 91.9 122.7 90.2 120.9 90.8 121 86.2 122.6 86.6 122.2 86.5 124.6ZM86.9 117.3 86.6 121.7 86.3 121.6 90.1 120.2 89.9 120.6 86.9 117.3ZM95.4 121.1 91.5 114 94.4 112.4Q95.2 111.9 95.9 111.9Q96.5 111.8 97.1 112.2Q97.6 112.5 98 113.2Q98.4 113.9 98.4 114.5Q98.4 115.1 98 115.7Q97.6 116.3 96.8 116.7L95 117.7L96.5 120.5ZM94.5 116.9 96.2 115.9Q97 115.5 97.2 115Q97.4 114.4 97 113.8Q96.6 113.1 96.1 113Q95.5 112.9 94.7 113.3L93 114.3ZM103.2 116.5 98.1 110.1 100.8 108Q101.5 107.5 102.1 107.3Q102.8 107.2 103.4 107.4Q104 107.6 104.4 108.3Q104.9 108.9 105 109.5Q105.1 110.1 104.8 110.7Q104.5 111.3 103.8 111.9L102.1 113.2L104.1 115.7ZM101.5 112.5 103.1 111.3Q103.8 110.7 103.9 110.1Q104 109.6 103.5 109Q103.1 108.4 102.5 108.4Q101.9 108.3 101.2 108.9L99.7 110.1Z"/><g fill="none" stroke-linecap="round" stroke-linejoin="round" stroke-width="7.5" transform="translate(70 70) scale(0.5) translate(-53 -50.5)"><path stroke="#D9C2A3" stroke-width="3.4" d="M60.5 60.2C55.3 57.6 56.3 45.4 60.5 45.4C64.7 45.4 65.7 57.6 60.5 60.2"/><path stroke="#D9C2A3" d="M26 33A13.5 13.5 0 1 1 53 33A13.5 13.5 0 1 1 26 33ZM53 19.5V44.5A7.5 7.5 0 0 0 60.5 52A7.5 7.5 0 0 0 68 44.5V38.5"/><path stroke="#D9C2A3" stroke-width="3.4" d="M60.5 60.2V64.3"/><path stroke="#D9C2A3" stroke-width="7.5" d="M40.5 75.5C40.5 66.5 46.1 64.3 60.5 64.3C74.9 64.3 80.5 66.5 80.5 75.5C80.5 81.6 75.7 82.3 60.5 82.3C45.3 82.3 40.5 81.6 40.5 75.5Z"/><path stroke="#D9C2A3" stroke-width="4.9" d="M48.9 75.6L55.3 71M57.3 75.6L63.7 71M65.7 75.6L72.1 71"/></g></g></svg>
